<svg version="1.1" xmlns="http://www.w3.org/2000/svg" viewBox="0 0 250 250"><desc>Created with Snap</desc><defs></defs><g transform="matrix(0.0552,0,0,0.0552,15.8335,199.5731)"><rect x="-286.719998550415" y="-3019.264059448242" width="4527.1041015625" height="3337.7280364990233" fill="#143d59" style=""></rect><g transform="matrix(18.5853,0,0,18.5853,1047.5686,-2804.9723)"><g transform="translate(0,-952.36218)"><path style="" d="m 45.719885,957.36164 3.18651,38.66594 c -0.0104,0.002 -0.0207,0.005 -0.0312,0.007 -0.004,7.7e-4 -0.008,0.002 -0.0117,0.003 -0.0463,0.009 -0.093,0.0154 -0.13911,0.0247 -0.004,7.6e-4 -0.008,0.002 -0.0116,0.003 -0.0493,0.01 -0.0979,0.0214 -0.14692,0.0325 -0.006,9.5e-4 -0.0104,0.003 -0.0156,0.004 -0.2469,0.0566 -0.49069,0.12668 -0.72935,0.21192 -0.0121,0.005 -0.0243,0.009 -0.0364,0.013 -0.0131,0.005 -0.026,0.009 -0.039,0.0143 l -16.53063,-35.06206 -7.4261,4.25388 22.0885,31.88727 c -0.0888,0.0738 -0.17625,0.14988 -0.26131,0.22881 -0.007,0.007 -0.0138,0.013 -0.0208,0.0195 -0.0278,0.026 -0.0546,0.0528 -0.082,0.0793 -0.0108,0.0104 -0.0218,0.0207 -0.0325,0.0312 -0.027,0.0265 -0.054,0.0535 -0.0806,0.0806 -0.12959,0.13168 -0.25391,0.2685 -0.37052,0.40953 l -31.84697,-22.10018 -4.30459,7.3975 35.07899,16.57354 c -0.003,0.01 -0.006,0.016 -0.009,0.025 -0.0102,0.028 -0.0201,0.055 -0.0299,0.083 -0.004,0.012 -0.008,0.023 -0.0116,0.035 -0.01,0.029 -0.0205,0.057 -0.0299,0.086 -0.008,0.023 -0.0149,0.046 -0.0221,0.069 -0.0107,0.034 -0.0211,0.068 -0.0312,0.1014 -0.005,0.015 -0.009,0.029 -0.013,0.044 -0.009,0.032 -0.0187,0.063 -0.0273,0.095 -0.005,0.019 -0.009,0.037 -0.0143,0.056 -0.007,0.023 -0.0123,0.047 -0.0182,0.07 -0.004,0.015 -0.007,0.029 -0.0104,0.044 -0.0341,0.1397 -0.0639,0.2792 -0.0884,0.4199 l -38.65164,-3.1839 0.0299,8.5572 38.61653,-3.2138 c 0.0675,0.4021 0.1727,0.7969 0.31462,1.1792 l -35.06208,16.5293 4.25389,7.4274 31.88726,-22.0898 c 0.25307,0.3044 0.53719,0.5885 0.85027,0.8463 l -22.10152,31.8496 7.3975,4.3046 16.57354,-35.0803 c 0.37654,0.1391 0.76017,0.2403 1.14668,0.3055 l -3.18652,38.6634 8.55848,-0.03 -3.21511,-38.6374 c 0.0264,-0 0.053,-0.01 0.0793,-0.014 0.0321,-0.01 0.0642,-0.012 0.0962,-0.018 0.0335,-0.01 0.0668,-0.014 0.10011,-0.021 0.29999,-0.063 0.59199,-0.1459 0.87496,-0.2496 l 16.57481,35.0816 7.39621,-4.3046 -22.1015,-31.8496 c 0.30851,-0.2541 0.59265,-0.5371 0.84895,-0.8437 l 31.88727,22.0898 4.25388,-7.4274 -35.05427,-16.5268 c 0.14193,-0.3794 0.24892,-0.7761 0.31722,-1.1856 l 38.63343,3.2151 0.0299,-8.55722 -38.66854,3.18522 c -0.0674,-0.3924 -0.17038,-0.773 -0.30551,-1.1376 l 35.06857,-16.56831 -4.30458,-7.3975 -31.84437,22.0989 c -0.0287,-0.0346 -0.0565,-0.0688 -0.0858,-0.1027 -0.10171,-0.11774 -0.20865,-0.23059 -0.31853,-0.34063 -9.4e-4,-9.5e-4 -0.002,-0.003 -0.003,-0.004 -0.0341,-0.0341 -0.0691,-0.068 -0.104,-0.10142 -0.002,-0.002 -0.005,-0.005 -0.007,-0.007 -0.035,-0.0333 -0.071,-0.0663 -0.10661,-0.0988 -0.002,-0.002 -0.004,-0.005 -0.007,-0.007 -0.0357,-0.0325 -0.0714,-0.0633 -0.10791,-0.0949 -0.002,-0.002 -0.004,-0.005 -0.007,-0.007 -0.0335,-0.0291 -0.0686,-0.0575 -0.1027,-0.0858 l 22.08718,-31.88469 -7.42611,-4.25387 -16.52802,35.05687 c -0.37416,-0.13875 -0.76416,-0.24216 -1.16748,-0.30943 l 3.2151,-38.63342 -8.55848,-0.0299 z" fill="#f4b41a" fill-opacity="1" fill-rule="nonzero" stroke="none"></path></g><desc>Created with Snap</desc><defs></defs></g><g><g transform="matrix(1.024,0,0,-1.024,0,0)"><path d="M265 251L266 648Q266 672 270 685Q274 698 281 705Q288 712 297 713Q306 715 316 715Q326 715 335 712Q344 710 351 702Q358 695 362 682Q366 669 366 649L366 229Q366 169 356 125Q347 81 325 52Q303 24 267 10Q231 -4 177 -4Q158 -4 131 2Q104 8 79 20Q55 33 37 53Q20 74 20 103Q20 126 35 135Q51 144 70 144Q84 144 96 136Q108 129 120 120Q133 111 147 103Q161 96 179 96Q201 96 217 102Q233 108 243 125Q254 142 259 172Q265 203 265 251ZM575 453Q577 427 576 390Q576 353 577 312Q579 272 584 231Q589 191 601 159Q614 127 636 107Q659 87 695 87Q731 87 753 107Q776 127 788 159Q801 191 806 231Q811 272 812 312Q814 353 813 390Q813 427 815 453Q819 515 866 515Q884 515 894 505Q904 495 908 477Q913 459 914 434Q915 409 915 378Q915 314 908 245Q902 177 879 120Q857 63 813 26Q769 -11 695 -11Q621 -11 577 26Q533 63 510 120Q488 177 481 245Q475 314 475 378Q475 409 476 434Q477 459 481 477Q486 495 496 505Q506 515 524 515Q571 515 575 453ZM1265 426Q1228 426 1198 414Q1169 402 1132 378Q1132 357 1132 316Q1132 276 1131 228Q1130 181 1129 135Q1128 89 1125 58Q1123 38 1120 26Q1118 15 1113 9Q1109 3 1101 1Q1094 0 1082 0Q1070 0 1062 1Q1055 3 1050 8Q1045 14 1042 25Q1039 36 1037 55Q1035 73 1033 103Q1032 133 1031 168Q1030 204 1029 240Q1029 277 1029 308Q1029 359 1030 391Q1032 423 1036 448Q1042 490 1052 501Q1062 512 1079 512Q1104 512 1116 498Q1129 484 1132 452Q1169 484 1211 503Q1254 522 1299 522Q1342 522 1377 502Q1413 482 1436 437Q1450 410 1457 377Q1464 345 1467 309Q1468 293 1469 277Q1470 262 1470 244Q1471 227 1471 205Q1471 183 1471 153Q1471 121 1470 93Q1469 65 1464 44Q1460 24 1449 12Q1438 1 1419 1Q1373 1 1371 45Q1371 48 1371 70Q1371 93 1370 123Q1370 153 1369 184Q1369 215 1368 235Q1367 251 1365 269Q1364 288 1361 307Q1359 326 1355 343Q1351 361 1345 375Q1331 408 1310 417Q1289 426 1265 426ZM1815 510Q1844 510 1873 505Q1903 500 1927 491Q1951 482 1966 469Q1981 456 1981 439Q1981 395 1931 395Q1919 395 1908 398Q1898 402 1884 405Q1870 409 1849 412Q1828 416 1797 416Q1731 416 1695 371Q1659 326 1659 254Q1659 175 1695 127Q1732 79 1799 79Q1841 79 1867 86Q1893 93 1909 102Q1926 111 1936 118Q1947 125 1960 125Q1978 125 1988 117Q1999 110 1999 87Q1999 63 1980 45Q1962 27 1934 15Q1906 3 1873 -3Q1841 -9 1814 -9Q1693 -9 1624 58Q1555 125 1555 248Q1555 301 1571 348Q1588 396 1621 432Q1654 468 1702 489Q1751 510 1815 510ZM2170 65Q2167 128 2166 214Q2166 301 2166 411Q2156 410 2142 410Q2129 410 2121 410Q2103 410 2088 411Q2074 412 2063 417Q2052 422 2046 431Q2040 441 2040 458Q2040 506 2112 506Q2123 506 2139 506Q2155 506 2166 504Q2166 557 2168 589Q2170 621 2175 638Q2181 656 2190 661Q2200 667 2215 667Q2231 667 2241 656Q2251 645 2256 628Q2262 611 2263 590Q2265 569 2265 549Q2265 535 2264 523Q2264 512 2264 503Q2278 507 2293 507Q2308 508 2322 508Q2359 508 2379 496Q2399 485 2399 459Q2399 443 2392 433Q2385 424 2373 419Q2362 414 2346 412Q2331 411 2313 411Q2303 411 2290 411Q2277 411 2266 413Q2266 360 2266 316Q2266 272 2265 231Q2264 191 2263 151Q2262 111 2260 66Q2259 42 2255 29Q2252 16 2246 9Q2240 2 2232 0Q2225 -1 2215 -1Q2197 -1 2184 11Q2172 24 2170 65ZM2569 453Q2571 427 2570 390Q2570 353 2571 312Q2573 272 2578 231Q2583 191 2595 159Q2608 127 2630 107Q2653 87 2689 87Q2725 87 2747 107Q2770 127 2782 159Q2795 191 2800 231Q2805 272 2806 312Q2808 353 2807 390Q2807 427 2809 453Q2813 515 2860 515Q2878 515 2888 505Q2898 495 2902 477Q2907 459 2908 434Q2909 409 2909 378Q2909 314 2902 245Q2896 177 2873 120Q2851 63 2807 26Q2763 -11 2689 -11Q2615 -11 2571 26Q2527 63 2504 120Q2482 177 2475 245Q2469 314 2469 378Q2469 409 2470 434Q2471 459 2475 477Q2480 495 2490 505Q2500 515 2518 515Q2565 515 2569 453ZM3029 61Q3025 96 3024 146Q3023 196 3023 267Q3023 337 3023 380Q3024 423 3029 456Q3034 497 3044 509Q3055 521 3072 521Q3084 521 3093 519Q3103 517 3110 510Q3118 504 3122 492Q3126 480 3126 459Q3126 455 3127 451Q3127 447 3127 442Q3128 438 3128 432Q3155 466 3189 490Q3224 514 3268 514Q3327 514 3327 465Q3327 447 3319 435Q3312 423 3298 415Q3285 408 3267 404Q3250 400 3229 396Q3197 390 3169 373Q3141 357 3131 332Q3131 313 3131 304Q3132 295 3132 289Q3133 283 3133 276Q3133 269 3133 254Q3133 203 3131 158Q3129 114 3127 62Q3126 38 3121 25Q3117 12 3110 5Q3104 -2 3096 -4Q3088 -5 3080 -5Q3052 -5 3042 7Q3033 20 3029 61ZM3632 184Q3597 184 3558 189Q3520 195 3475 213Q3484 152 3525 121Q3567 90 3645 90Q3673 90 3695 93Q3718 97 3735 101Q3752 106 3765 109Q3778 113 3789 113Q3803 113 3816 104Q3829 96 3829 76Q3829 51 3808 35Q3788 19 3758 9Q3729 0 3696 -4Q3663 -7 3638 -7Q3579 -7 3529 9Q3480 25 3444 57Q3408 90 3388 138Q3368 186 3368 250Q3368 312 3387 360Q3407 408 3441 441Q3475 474 3521 491Q3568 508 3622 508Q3664 508 3703 497Q3743 486 3773 464Q3804 442 3822 408Q3841 375 3841 330Q3841 290 3826 262Q3811 234 3783 217Q3756 200 3717 192Q3679 184 3632 184ZM3625 416Q3598 416 3573 409Q3548 403 3527 388Q3507 374 3493 350Q3479 327 3474 292Q3512 275 3548 268Q3584 262 3624 262Q3683 262 3711 276Q3740 291 3740 329Q3740 364 3713 390Q3687 416 3625 416Z" fill="#ffffff" style=""></path></g></g></g></svg>